<svg width="597" height="478" viewBox="0 0 597 478" fill="none" xmlns="http://www.w3.org/2000/svg">
<g opacity="0.69">
<path d="M447.691 230.805L446.048 221.448C442.991 221.985 440.39 223.98 439.079 226.794C437.769 229.607 437.915 232.882 439.471 235.567L447.691 230.805ZM473.586 226.256L481.231 231.896C483.537 228.771 483.708 224.556 481.662 221.254C479.617 217.952 475.768 216.228 471.943 216.9L473.586 226.256ZM457.606 247.916L449.386 252.679C450.992 255.45 453.885 257.225 457.082 257.402C460.279 257.578 463.35 256.133 465.251 253.556L457.606 247.916ZM421.149 183.381L419.506 174.024C416.449 174.561 413.847 176.557 412.537 179.37C411.227 182.183 411.373 185.459 412.929 188.144L421.149 183.381ZM447.046 178.832L454.69 184.473C456.996 181.347 457.167 177.133 455.122 173.83C453.077 170.528 449.228 168.804 445.402 169.476L447.046 178.832ZM431.064 200.492L422.845 205.255C424.45 208.025 427.343 209.8 430.54 209.977C433.737 210.154 436.808 208.708 438.709 206.132L431.064 200.492ZM266.88 77.6635L257.606 75.6053C256.934 78.6347 257.783 81.8014 259.881 84.0875C261.98 86.3736 265.062 87.4907 268.138 87.0799L266.88 77.6635ZM272.576 52L280.709 47.0911C278.702 43.7659 274.873 41.9972 271.04 42.6249C267.207 43.2525 264.143 46.1501 263.301 49.9418L272.576 52ZM286.484 75.0447L287.742 84.4611C290.916 84.0371 293.663 82.0424 295.049 79.1554C296.434 76.2684 296.272 72.8776 294.617 70.1359L286.484 75.0447ZM319.606 77.716L318.348 87.1323C321.424 87.5432 324.506 86.426 326.604 84.14C328.703 81.8539 329.552 78.6872 328.88 75.6578L319.606 77.716ZM313.91 52.0524L323.185 49.9943C322.343 46.2026 319.279 43.305 315.446 42.6773C311.613 42.0497 307.784 43.8183 305.777 47.1436L313.91 52.0524ZM300.002 75.0972L291.869 70.1883C290.214 72.93 290.052 76.3209 291.437 79.2079C292.823 82.0949 295.57 84.0895 298.744 84.5136L300.002 75.0972ZM385.462 124.464L377.991 130.332L377.991 130.332L385.462 124.464ZM379.242 99.7136L369.913 101.507C370.773 105.981 374.687 109.214 379.242 109.214V99.7136ZM393.975 76.1417L398.757 67.9334L398.757 67.9332L393.975 76.1417ZM390.372 74.5681L393.104 65.4694C389.325 64.3348 385.238 65.6542 382.836 68.7842L390.372 74.5681ZM379.24 99.7128L369.911 101.507C370.771 105.98 374.685 109.213 379.24 109.213V99.7128ZM385.461 124.463L377.99 130.331L377.99 130.331L385.461 124.463ZM406.166 154.713L414.305 149.813L414.305 149.813L406.166 154.713ZM290.178 73.8499L289.796 64.3575L289.796 64.3575L290.178 73.8499ZM355.503 94.0759L361.211 86.4815L361.21 86.4811L355.503 94.0759ZM178.023 152.748L169.933 147.769L169.932 147.77L178.023 152.748ZM213.888 94.0762L212.442 103.465C216.579 104.103 220.646 101.957 222.455 98.1818L213.888 94.0762ZM202.428 69.5731L202.56 60.074L202.56 60.074L202.428 69.5731ZM193.915 71.5585L189.202 63.3099L189.202 63.3099L193.915 71.5585ZM501.375 304.653L510.41 307.59C511.628 303.843 510.407 299.732 507.34 297.258L501.375 304.653ZM407.728 157.333L415.91 152.504L415.91 152.504L407.728 157.333ZM406.167 154.714L414.306 149.814L414.306 149.814L406.167 154.714ZM410.021 207.17L401.174 210.63C402.229 213.329 404.46 215.399 407.23 216.251C410.001 217.102 413.009 216.642 415.399 215.002L410.021 207.17ZM146.763 374.057L143.236 382.878C143.514 382.99 143.798 383.088 144.086 383.172L146.763 374.057ZM113.365 358.669L103.92 357.649C103.542 361.15 105.131 364.573 108.049 366.543L113.365 358.669ZM454.877 138.016L453.468 128.622C452.783 128.724 452.112 128.901 451.466 129.15L454.877 138.016ZM456.842 164.207L464.14 170.289C466.23 167.781 466.886 164.375 465.877 161.27L456.842 164.207ZM427.644 193.982L421.578 186.67L421.578 186.67L427.644 193.982ZM410.019 207.169L401.172 210.629C402.227 213.329 404.458 215.398 407.228 216.25C409.999 217.102 413.007 216.642 415.396 215.001L410.019 207.169ZM200.299 121.975L193.102 115.774L193.102 115.774L200.299 121.975ZM178.021 152.749L169.93 147.77C169.792 147.995 169.663 148.226 169.543 148.462L178.021 152.749ZM470.266 336.736L464.78 328.98C464.524 329.161 464.277 329.355 464.04 329.561L470.266 336.736ZM451.943 240.492L443.268 236.62L443.268 236.62L451.943 240.492ZM475.833 177.926L484.855 180.902C485.696 178.353 485.419 175.567 484.093 173.233C482.768 170.9 480.516 169.236 477.896 168.653L475.833 177.926ZM473.213 177.183L476.303 168.2L476.301 168.199L473.213 177.183ZM470.266 167.153L476.698 174.144C479.109 171.926 480.207 168.622 479.603 165.402C478.999 162.182 476.778 159.5 473.727 158.306L470.266 167.153ZM467.974 158.397L475.291 164.457C477.418 161.889 478.043 158.392 476.936 155.246C475.83 152.1 473.155 149.764 469.888 149.092L467.974 158.397ZM485.003 154.713L478.463 147.823C478.228 148.046 478.005 148.281 477.794 148.526L485.003 154.713ZM469.94 158.641L469.381 168.125L469.382 168.125L469.94 158.641ZM467.976 158.397L469.892 149.092L469.89 149.092L467.976 158.397ZM488.604 164.207L493.659 172.25C494.104 171.97 494.525 171.654 494.918 171.305L488.604 164.207ZM486.613 152.749L478.584 147.671L478.582 147.674L486.613 152.749ZM485.003 145.219L489.762 136.998C488.75 136.412 487.639 136.018 486.484 135.836L485.003 145.219ZM473.215 177.182L476.305 168.199L476.303 168.198L473.215 177.182ZM475.835 177.925L477.901 168.653L477.898 168.652L475.835 177.925ZM489.259 175.546L495.77 182.463C496.255 182.007 496.691 181.5 497.07 180.952L489.259 175.546ZM501.373 304.653L510.408 307.59C511.626 303.843 510.405 299.732 507.338 297.258L501.373 304.653ZM238.193 89.6301L228.884 91.5256C229.482 94.4645 231.433 96.9482 234.147 98.2255C236.861 99.5028 240.018 99.4236 242.664 98.0119L238.193 89.6301ZM232.939 63.8282L238.571 56.1781C235.407 53.8484 231.136 53.7071 227.824 55.8225C224.513 57.9379 222.846 61.8735 223.63 65.7237L232.939 63.8282ZM255.466 80.415L259.938 88.7969C262.817 87.2612 264.706 84.3556 264.942 81.1013C265.177 77.847 263.727 74.6995 261.099 72.765L255.466 80.415ZM348.293 89.6825L343.821 98.0644C346.468 99.4761 349.625 99.5553 352.339 98.278C355.052 97.0007 357.003 94.5169 357.602 91.5781L348.293 89.6825ZM353.547 63.8806L362.856 65.7762C363.64 61.9259 361.973 57.9903 358.661 55.8749C355.35 53.7595 351.078 53.9009 347.914 56.2306L353.547 63.8806ZM331.019 80.4675L325.386 72.8174C322.759 74.752 321.308 77.8995 321.544 81.1538C321.78 84.408 323.669 87.3137 326.548 88.8494L331.019 80.4675ZM414.396 190.584L411.926 181.411C409.399 182.091 407.265 183.783 406.027 186.089C404.788 188.394 404.556 191.108 405.384 193.59L414.396 190.584ZM438.097 184.205L444.688 191.046C447.81 188.038 448.499 183.299 446.365 179.527C444.23 175.754 439.813 173.905 435.627 175.031L438.097 184.205ZM433.596 188.541L439.683 195.835C439.857 195.69 440.025 195.539 440.188 195.382L433.596 188.541ZM418.043 201.521L409.031 204.527C410.025 207.506 412.427 209.802 415.448 210.66C418.469 211.518 421.719 210.827 424.13 208.815L418.043 201.521ZM255.203 96.5053L245.725 95.8467C245.51 98.9422 246.82 101.948 249.235 103.897C251.649 105.846 254.863 106.493 257.844 105.631L255.203 96.5053ZM257.025 70.2807L264.34 64.2188C261.861 61.2283 257.812 60.0476 254.115 61.2373C250.418 62.427 247.817 65.7475 247.548 69.622L257.025 70.2807ZM274.201 91.006L276.842 100.131C279.919 99.2409 282.339 96.8606 283.281 93.7998C284.223 90.7391 283.559 87.4098 281.516 84.9441L274.201 91.006ZM303.703 89.3471L303.856 98.8459C306.959 98.7957 309.842 97.2332 311.578 94.6609C313.314 92.0885 313.684 88.8305 312.569 85.9345L303.703 89.3471ZM294.259 64.8132L303.125 61.4006C301.73 57.7759 298.269 55.3655 294.385 55.314C290.502 55.2625 286.978 57.5802 285.487 61.1666L294.259 64.8132ZM283.928 89.6668L275.156 86.0202C273.927 88.9771 274.27 92.3543 276.069 95.0034C277.867 97.6526 280.88 99.2173 284.082 99.1656L283.928 89.6668ZM291.813 103.224L295.018 112.167C297.939 111.12 300.165 108.712 300.98 105.718C301.794 102.724 301.095 99.5199 299.107 97.1373L291.813 103.224ZM274.969 83.0398L282.263 76.9529C279.774 73.971 275.721 72.8041 272.028 74.0064C268.335 75.2088 265.745 78.5381 265.489 82.4136L274.969 83.0398ZM273.194 109.897L263.715 109.27C263.504 112.466 264.917 115.552 267.473 117.481C270.029 119.409 273.385 119.92 276.399 118.84L273.194 109.897ZM328.868 96.5766L325.69 105.529C328.517 106.533 331.651 106.142 334.145 104.476C336.639 102.81 338.2 100.064 338.355 97.069L328.868 96.5766ZM330.233 70.2807L339.72 70.773C339.924 66.8491 337.691 63.2047 334.102 61.6044C330.514 60.004 326.31 60.778 323.527 63.5515L330.233 70.2807ZM310.417 90.0272L303.712 83.298C301.401 85.6011 300.433 88.9291 301.149 92.1123C301.865 95.2954 304.165 97.8884 307.24 98.9799L310.417 90.0272ZM295.166 103.224L287.872 97.1373C285.884 99.5199 285.185 102.724 285.999 105.718C286.814 108.712 289.04 111.12 291.961 112.167L295.166 103.224ZM312.011 83.0398L321.49 82.4136C321.234 78.5381 318.645 75.2088 314.951 74.0064C311.258 72.8041 307.205 73.971 304.717 76.9529L312.011 83.0398ZM313.785 109.897L310.58 118.84C313.594 119.92 316.95 119.409 319.506 117.481C322.062 115.552 323.475 112.466 323.264 109.27L313.785 109.897ZM472.791 273.753L469.854 264.719C466.903 265.678 464.606 268.018 463.702 270.987C462.799 273.955 463.402 277.178 465.318 279.619L472.791 273.753ZM497.794 265.625L506.153 270.14C507.999 266.723 507.578 262.526 505.091 259.542C502.604 256.559 498.551 255.39 494.857 256.591L497.794 265.625ZM485.002 289.309L477.529 295.175C479.507 297.694 482.62 299.047 485.81 298.775C489 298.502 491.839 296.641 493.361 293.824L485.002 289.309ZM459.051 253.018L456.988 243.745C453.959 244.419 451.449 246.53 450.267 249.399C449.085 252.268 449.379 255.534 451.054 258.146L459.051 253.018ZM484.716 247.309L492.606 252.599C494.769 249.373 494.751 245.155 492.559 241.948C490.367 238.741 486.444 237.192 482.653 238.035L484.716 247.309ZM469.726 269.665L461.729 274.793C463.458 277.488 466.428 279.132 469.629 279.164C472.831 279.197 475.834 277.615 477.617 274.955L469.726 269.665ZM486.681 290.599L483.071 281.812C480.201 282.991 478.087 285.498 477.41 288.527C476.733 291.555 477.578 294.723 479.673 297.013L486.681 290.599ZM511 280.608L519.676 284.48C521.258 280.933 520.522 276.779 517.817 273.992C515.112 271.205 510.983 270.345 507.39 271.821L511 280.608ZM500.032 305.188L493.024 311.602C495.186 313.964 498.392 315.078 501.553 314.566C504.713 314.054 507.403 311.984 508.708 309.059L500.032 305.188ZM472.131 292.747C467.278 294.741 464.96 300.291 466.954 305.144C468.948 309.997 474.498 312.315 479.351 310.322L472.131 292.747ZM503.67 300.331C508.523 298.337 510.841 292.787 508.847 287.933C506.854 283.08 501.303 280.762 496.45 282.756L503.67 300.331ZM115.951 341.461L125.425 340.758C125.195 337.663 123.469 334.876 120.801 333.292C118.133 331.708 114.86 331.526 112.033 332.806L115.951 341.461ZM92 352.304L88.0819 343.649C84.5433 345.251 82.3364 348.846 82.5094 352.727C82.6824 356.607 85.2003 359.992 88.8675 361.272L92 352.304ZM117.414 361.18L114.281 370.149C117.304 371.205 120.656 370.667 123.196 368.718C125.737 366.769 127.124 363.671 126.888 360.477L117.414 361.18ZM119.504 318.002L128.879 319.539C129.38 316.477 128.355 313.362 126.132 311.197C123.909 309.032 120.769 308.089 117.721 308.671L119.504 318.002ZM93.6785 322.935L91.8963 313.604C88.081 314.332 85.0936 317.31 84.3529 321.123C83.6121 324.936 85.2673 328.816 88.5322 330.92L93.6785 322.935ZM116.306 337.517L111.159 345.503C113.851 347.237 117.235 347.499 120.161 346.2C123.088 344.9 125.163 342.214 125.68 339.054L116.306 337.517ZM124.772 291.863L134.048 293.914C134.718 290.884 133.866 287.718 131.766 285.434C129.666 283.149 126.583 282.034 123.507 282.448L124.772 291.863ZM98.7142 295.364L97.4492 285.949C93.5995 286.466 90.4525 289.274 89.5026 293.041C88.5527 296.807 89.9914 300.772 93.1354 303.053L98.7142 295.364ZM120.502 311.172L114.923 318.861C117.515 320.741 120.88 321.19 123.873 320.053C126.867 318.917 129.087 316.349 129.778 313.223L120.502 311.172ZM462.506 282.352L460.241 273.126C457.227 273.866 454.765 276.031 453.645 278.926C452.526 281.82 452.891 285.079 454.623 287.654L462.506 282.352ZM488.039 276.082L496.043 281.198C498.135 277.925 498.024 273.709 495.763 270.551C493.501 267.393 489.545 265.93 485.773 266.856L488.039 276.082ZM473.543 298.76L465.66 304.062C467.447 306.719 470.452 308.297 473.654 308.26C476.855 308.222 479.823 306.574 481.547 303.877L473.543 298.76ZM447.921 262.301L445.654 253.075C442.641 253.816 440.179 255.981 439.06 258.875C437.941 261.77 438.306 265.028 440.038 267.603L447.921 262.301ZM473.453 256.029L481.458 261.146C483.549 257.873 483.438 253.656 481.177 250.498C478.915 247.34 474.959 245.877 471.187 246.804L473.453 256.029ZM458.957 278.71L451.074 284.012C452.861 286.668 455.866 288.246 459.068 288.209C462.27 288.171 465.237 286.524 466.962 283.826L458.957 278.71ZM136.543 265.089L145.806 267.199C146.495 264.173 145.663 261.002 143.577 258.704C141.492 256.406 138.415 255.272 135.337 255.666L136.543 265.089ZM110.464 268.427L109.258 259.004C105.405 259.497 102.241 262.286 101.267 266.047C100.294 269.807 101.708 273.781 104.837 276.082L110.464 268.427ZM132.152 284.371L126.525 292.025C129.105 293.922 132.467 294.391 135.468 293.274C138.468 292.156 140.704 289.603 141.415 286.48L132.152 284.371ZM143.295 233.348L152.532 235.566C153.257 232.549 152.462 229.368 150.404 227.046C148.345 224.724 145.282 223.554 142.2 223.911L143.295 233.348ZM117.178 236.379L116.083 226.942C112.225 227.39 109.027 230.142 108.01 233.89C106.992 237.639 108.359 241.63 111.462 243.967L117.178 236.379ZM138.678 252.576L132.962 260.164C135.519 262.09 138.875 262.599 141.889 261.517C144.902 260.435 147.168 257.908 147.915 254.794L138.678 252.576ZM153.538 201.31L162.405 204.721C163.519 201.824 163.148 198.567 161.412 195.995C159.676 193.423 156.793 191.861 153.69 191.811L153.538 201.31ZM127.249 200.891L127.401 191.392C123.517 191.33 119.987 193.639 118.487 197.221C116.986 200.804 117.818 204.939 120.588 207.663L127.249 200.891ZM146.439 219.766L139.777 226.539C142.06 228.784 145.32 229.729 148.449 229.051C151.579 228.374 154.156 226.165 155.306 223.177L146.439 219.766ZM437.432 261.767C440.065 266.305 445.879 267.848 450.417 265.215C454.955 262.581 456.498 256.767 453.865 252.23L437.432 261.767ZM462.205 240.757C464.418 235.999 462.355 230.349 457.598 228.136C452.841 225.923 447.19 227.986 444.977 232.743L462.205 240.757ZM444.829 255.587L436.215 251.58C434.906 254.394 435.055 257.671 436.613 260.355L444.829 255.587ZM408.203 164.887L408.528 155.392C405.427 155.286 402.469 156.701 400.606 159.182C398.742 161.664 398.209 164.899 399.176 167.848L408.203 164.887ZM434.479 165.787L440.792 172.885C443.695 170.304 444.733 166.216 443.414 162.562C442.096 158.909 438.686 156.426 434.804 156.293L434.479 165.787ZM414.366 183.677L405.339 186.638C406.337 189.68 408.801 192.015 411.893 192.849C414.984 193.683 418.288 192.903 420.68 190.775L414.366 183.677ZM408.818 154.606L417.158 150.057C415.665 147.32 412.924 145.489 409.823 145.159C406.722 144.829 403.657 146.042 401.621 148.404L408.818 154.606ZM410.83 158.296L402.49 162.844C402.616 163.076 402.752 163.302 402.897 163.522L410.83 158.296ZM140.331 251.858C139.406 257.022 142.843 261.959 148.007 262.884C153.172 263.808 158.108 260.371 159.033 255.207L140.331 251.858ZM168.911 174.084L177.842 177.321C178.9 174.404 178.465 171.154 176.679 168.616C174.893 166.079 171.98 164.573 168.877 164.584L168.911 174.084ZM142.619 174.177L142.585 164.677C138.701 164.691 135.216 167.068 133.786 170.679C132.356 174.29 133.268 178.408 136.09 181.078L142.619 174.177ZM162.172 192.676L155.643 199.577C157.969 201.778 161.247 202.658 164.363 201.92C167.479 201.182 170.013 198.924 171.104 195.913L162.172 192.676ZM431.066 190.529L438.9 195.903C441.028 192.801 441.125 188.736 439.148 185.536L431.066 190.529ZM153.13 234.073L162.467 235.822L153.13 234.073ZM151.288 244.563L160.639 246.238C160.647 246.192 160.655 246.146 160.663 246.101L151.288 244.563ZM452.974 168.772L445.78 162.566L445.78 162.567L452.974 168.772ZM445.684 253.749L437.07 249.742L445.684 253.749ZM465.941 220.617L449.962 242.276L465.251 253.556L481.231 231.896L465.941 220.617ZM439.401 173.192L423.42 194.851L438.709 206.132L454.69 184.473L439.401 173.192ZM276.155 79.7217L281.85 54.0582L263.301 49.9418L257.606 75.6053L276.155 79.7217ZM264.442 56.9089L278.35 79.9536L294.617 70.1359L280.709 47.0911L264.442 56.9089ZM285.226 65.6284L265.622 68.2472L268.138 87.0799L287.742 84.4611L285.226 65.6284ZM328.88 75.6578L323.185 49.9943L304.636 54.1106L310.331 79.7741L328.88 75.6578ZM305.777 47.1436L291.869 70.1883L308.135 80.0061L322.044 56.9613L305.777 47.1436ZM298.744 84.5136L318.348 87.1323L320.864 68.2996L301.26 65.6808L298.744 84.5136ZM393.109 65.4713C381.903 62.1021 371.421 67.1054 364.385 72.0664C357.052 77.2375 351.096 83.9827 347.819 88.4935L363.192 99.6602C365.585 96.3654 370.122 91.2695 375.334 87.5945C380.844 83.7094 384.961 82.8617 387.639 83.6667L393.109 65.4713ZM349.798 101.671C359.459 108.932 368.997 118.878 377.991 130.332L392.934 118.597C383.297 106.325 372.608 95.0462 361.213 86.4824L349.798 101.671ZM394.949 124.968C395.039 123.284 395.326 121.307 395.68 118.187C395.994 115.421 396.325 111.96 396.182 108.593C396.048 105.419 395.461 100.952 392.828 97.0798C389.712 92.4965 384.782 90.2136 379.242 90.2136V109.214C379.268 109.214 377.953 108.993 377.115 107.762C376.761 107.241 377.116 107.415 377.199 109.397C377.275 111.186 377.102 113.398 376.801 116.046C376.541 118.34 376.105 121.519 375.976 123.96L394.949 124.968ZM388.571 97.9199C388.655 98.3553 388.483 97.9673 388.955 96.3349C389.382 94.8628 390.14 93.0339 391.187 90.9779C393.282 86.8635 396.054 82.7721 397.91 80.3529L382.838 68.7851C380.439 71.9102 376.99 76.9864 374.256 82.3559C372.888 85.0419 371.579 88.034 370.706 91.0485C369.879 93.9029 369.174 97.6673 369.913 101.507L388.571 97.9199ZM417.148 158.551C417.842 153.189 419.143 147.159 420.49 139.343C421.769 131.925 422.953 123.536 422.979 115.102C423.032 98.1158 418.276 79.3061 398.757 67.9334L389.192 84.3499C400.453 90.9116 404.021 101.511 403.979 115.043C403.958 121.869 402.99 129.016 401.766 136.116C400.611 142.818 399.059 150.289 398.306 156.112L417.148 158.551ZM398.757 67.9332C396.938 66.8732 395.049 66.0531 393.104 65.4694L387.641 83.6669C388.127 83.8128 388.641 84.0293 389.192 84.3501L398.757 67.9332ZM382.836 68.7842C380.438 71.9093 376.989 76.9856 374.254 82.3551C372.886 85.041 371.577 88.0331 370.704 91.0477C369.877 93.9021 369.173 97.6664 369.911 101.507L388.569 97.9191C388.653 98.3545 388.481 97.9665 388.954 96.3341C389.38 94.862 390.138 93.0331 391.185 90.9771C393.281 86.8626 396.052 82.7713 397.909 80.3521L382.836 68.7842ZM379.24 109.213C379.266 109.213 377.951 108.993 377.114 107.761C376.76 107.24 377.114 107.414 377.198 109.396C377.274 111.186 377.1 113.397 376.8 116.045C376.54 118.339 376.104 121.519 375.974 123.959L394.948 124.967C395.037 123.283 395.325 121.306 395.679 118.186C395.993 115.42 396.324 111.959 396.181 108.592C396.047 105.418 395.459 100.951 392.827 97.0789C389.711 92.4956 384.781 90.2128 379.24 90.2128V109.213ZM377.99 130.331C385.19 139.498 391.938 149.499 398.027 159.613L414.305 149.813C407.885 139.15 400.698 128.483 392.932 118.595L377.99 130.331ZM398.027 159.612C398.538 160.461 399.044 161.31 399.546 162.16L415.908 152.503C415.379 151.607 414.845 150.71 414.305 149.813L398.027 159.612ZM289.796 64.3575C265.711 65.3251 244.315 73.3681 225.541 86.2407L236.285 101.911C252.457 90.823 270.444 84.1503 290.559 83.3422L289.796 64.3575ZM361.21 86.4811C341.661 71.7908 318.371 63.2097 289.796 64.3575L290.559 83.3422C314.459 82.3822 333.499 89.4244 349.796 101.671L361.21 86.4811ZM183.44 162.162C184.321 160.671 185.213 159.192 186.114 157.727L169.932 147.77C168.97 149.334 168.019 150.911 167.08 152.501L183.44 162.162ZM186.114 157.728C192.714 147.003 199.837 137.067 207.498 128.176L193.104 115.774C184.685 125.544 176.977 136.323 169.933 147.769L186.114 157.728ZM209.675 120.429C207.84 109.303 209.954 105.275 210.737 104.269C211.339 103.495 212.025 103.401 212.442 103.465L215.335 84.687C209.531 83.7928 201.394 85.3391 195.743 92.599C190.272 99.6277 188.703 110.028 190.928 123.52L209.675 120.429ZM222.455 98.1818C226.53 89.679 222.569 80.8718 219.743 76.0319C216.498 70.4752 212.053 65.5536 208.902 62.6201L195.955 76.5262C198.152 78.572 201.27 82.0757 203.335 85.6125C204.363 87.3731 204.905 88.7623 205.107 89.7057C205.301 90.6152 205.064 90.5081 205.321 89.9706L222.455 98.1818ZM202.56 60.074C198.179 60.0135 193.49 60.8602 189.202 63.3099L198.628 79.8072C199.323 79.4101 200.483 79.0472 202.297 79.0722L202.56 60.074ZM189.202 63.3099C168.258 75.2762 160.258 94.6865 158.698 113.179C157.166 131.352 161.704 149.323 166.472 160.939L184.049 153.724C180.082 144.061 176.418 129.16 177.631 114.775C178.818 100.708 184.512 87.8719 198.628 79.8072L189.202 63.3099ZM240.066 96.6324C241.643 90.9847 240.357 85.6101 238.165 81.3437C235.991 77.1106 232.69 73.4424 229.104 70.4869C222.081 64.6965 212.18 60.2073 202.56 60.074L202.297 79.0722C206.676 79.1329 212.539 81.4547 217.019 85.1475C219.185 86.9335 220.571 88.6749 221.265 90.0262C221.942 91.3443 221.708 91.729 221.766 91.5224L240.066 96.6324ZM475.754 344.492C480.527 341.116 487.82 335.429 494.444 329.137C497.758 325.988 501.041 322.561 503.787 319.089C506.44 315.735 509.048 311.779 510.41 307.59L492.341 301.715C492 302.764 490.986 304.646 488.886 307.301C486.879 309.838 484.276 312.589 481.358 315.361C475.518 320.909 468.96 326.025 464.783 328.98L475.754 344.492ZM507.34 297.258C488.753 282.265 474.108 260.758 460.245 235.87L443.646 245.115C457.829 270.578 473.91 294.703 495.411 312.047L507.34 297.258ZM436.094 189.637C429.691 177.19 423.065 164.628 415.91 152.504L399.547 162.161C406.414 173.796 412.837 185.962 419.198 198.328L436.094 189.637ZM415.91 152.504C415.381 151.608 414.846 150.711 414.306 149.814L398.028 159.613C398.539 160.462 399.045 161.311 399.547 162.162L415.91 152.504ZM415.399 215.002C422.029 210.449 427.999 206.033 433.712 201.294L421.581 186.671C416.419 190.953 410.932 195.021 404.644 199.338L415.399 215.002ZM167.08 152.501C128.826 217.278 109.774 303.449 103.92 357.649L122.81 359.689C128.513 306.887 147.099 223.7 183.44 162.162L167.08 152.501ZM108.049 366.543C117.528 372.943 132.344 378.522 143.236 382.878L150.291 365.237C138.262 360.426 126.011 355.745 118.681 350.796L108.049 366.543ZM451.466 129.15C445.78 131.337 443.336 136.185 442.575 140.23C441.887 143.891 442.345 147.667 442.913 150.617C444.049 156.515 446.591 163.403 447.808 167.144L465.877 161.27C464.255 156.281 462.409 151.382 461.57 147.023C461.379 146.031 461.277 145.232 461.242 144.615C461.206 143.977 461.252 143.719 461.248 143.742C461.2 143.995 460.568 146.006 458.287 146.883L451.466 129.15ZM421.578 186.67C416.417 190.952 410.93 195.02 404.642 199.338L415.396 215.001C422.026 210.449 427.997 206.032 433.709 201.294L421.578 186.67ZM392.932 118.596C383.295 106.324 372.606 95.0451 361.211 86.4815L349.796 101.67C359.457 108.931 368.995 118.878 377.99 130.331L392.932 118.596ZM193.102 115.774C184.683 125.544 176.975 136.323 169.93 147.77L186.112 157.728C192.712 147.004 199.835 137.067 207.496 128.176L193.102 115.774ZM144.086 383.172C179.851 393.676 238.95 404.291 300.839 402.245C362.567 400.204 428.545 385.513 476.491 343.912L464.04 329.561C420.83 367.052 359.982 381.28 300.211 383.255C240.602 385.226 183.528 374.954 149.44 364.942L144.086 383.172ZM477.896 168.653C477.406 168.543 476.874 168.396 476.303 168.2L470.123 186.166C471.358 186.591 472.576 186.933 473.77 187.199L477.896 168.653ZM476.301 168.199C474.973 167.742 475.034 167.522 475.538 168.024C475.829 168.314 476.234 168.815 476.56 169.55C476.893 170.299 477.059 171.1 477.072 171.874C477.096 173.341 476.576 174.208 476.514 174.31C476.429 174.449 476.46 174.363 476.698 174.144L463.833 160.162C462.707 161.199 461.377 162.634 460.279 164.438C459.205 166.206 458.02 168.884 458.074 172.184C458.205 180.189 464.733 184.314 470.125 186.167L476.301 168.199ZM473.727 158.306C473.154 158.082 473.597 158.132 474.248 158.879C475.027 159.772 475.56 161.043 475.616 162.392C475.663 163.548 475.345 164.28 475.269 164.442C475.185 164.624 475.161 164.613 475.291 164.457L460.658 152.337C459.265 154.019 456.418 157.953 456.632 163.17C456.907 169.901 461.763 174.028 466.804 176L473.727 158.306ZM475.735 143.341C473.765 140.55 472.106 138.256 470.675 136.448C469.296 134.705 467.775 132.955 466.035 131.569C464.059 129.994 461.737 128.834 458.954 128.452C456.61 128.129 454.47 128.471 453.468 128.622L456.285 147.411C457.466 147.234 457.073 147.372 456.366 147.275C455.22 147.117 454.426 146.612 454.196 146.429C454.158 146.399 454.273 146.486 454.565 146.801C454.854 147.112 455.247 147.57 455.777 148.24C456.857 149.604 458.254 151.524 460.214 154.299L475.735 143.341ZM477.794 148.526C478.275 147.966 478.56 147.837 478.354 147.964C478.216 148.049 477.853 148.248 477.228 148.464C475.998 148.887 473.808 149.352 470.498 149.158L469.382 168.125C480.195 168.761 488.372 165.375 492.213 160.899L477.794 148.526ZM470.499 149.158C470.128 149.136 469.937 149.102 469.892 149.092L466.061 167.702C467.156 167.928 468.271 168.059 469.381 168.125L470.499 149.158ZM460.66 152.337C459.267 154.019 456.42 157.953 456.634 163.17C456.909 169.901 461.764 174.028 466.806 176L473.729 158.306C473.156 158.082 473.599 158.132 474.25 158.879C475.029 159.772 475.562 161.043 475.618 162.392C475.665 163.548 475.347 164.28 475.271 164.442C475.187 164.624 475.163 164.613 475.292 164.457L460.66 152.337ZM466.807 176C471.354 177.779 476.053 177.739 479.791 177.199C483.614 176.647 487.21 175.462 490.065 174.164L482.201 156.868C480.735 157.535 478.87 158.135 477.077 158.394C475.198 158.665 474.124 158.461 473.728 158.306L466.807 176ZM490.065 174.164C491.331 173.589 492.553 172.945 493.659 172.25L483.549 156.164C483.281 156.332 482.829 156.583 482.201 156.868L490.065 174.164ZM494.918 171.305C497.022 169.433 500.747 165.289 501.264 159.57C501.562 156.265 500.727 152.733 498.342 149.673C496.12 146.82 493.059 145.022 489.955 143.856L483.271 161.641C484.348 162.046 483.98 162.153 483.355 161.351C483.023 160.925 482.709 160.35 482.514 159.657C482.323 158.975 482.297 158.352 482.341 157.86C482.422 156.969 482.72 156.58 482.632 156.719C482.571 156.816 482.428 156.986 482.29 157.109L494.918 171.305ZM478.582 147.674C478.574 147.687 478.55 147.722 478.513 147.766C478.497 147.786 478.482 147.802 478.471 147.814C478.459 147.827 478.456 147.829 478.463 147.823L491.544 161.603C492.592 160.608 493.694 159.327 494.644 157.823L478.582 147.674ZM486.484 135.836C481.839 135.103 477.193 135.582 473.301 136.511C469.449 137.43 465.647 138.955 462.706 140.915L473.243 156.725C473.904 156.285 475.504 155.518 477.711 154.992C479.877 154.475 481.944 154.354 483.521 154.603L486.484 135.836ZM494.642 157.826C495.914 155.816 497.576 152.347 497.195 148.09C496.753 143.152 493.789 139.329 489.762 136.998L480.243 153.441C480.201 153.417 479.717 153.124 479.211 152.396C478.676 151.624 478.353 150.7 478.271 149.784C478.128 148.19 478.746 147.415 478.584 147.671L494.642 157.826ZM463.835 160.162C462.709 161.199 461.378 162.634 460.281 164.438C459.206 166.206 458.022 168.884 458.076 172.185C458.208 180.19 464.736 184.314 470.128 186.167L476.303 168.198C474.975 167.742 475.036 167.521 475.54 168.023C475.831 168.313 476.235 168.814 476.562 169.549C476.895 170.298 477.061 171.1 477.074 171.873C477.098 173.34 476.578 174.208 476.516 174.31C476.431 174.449 476.462 174.363 476.7 174.144L463.835 160.162ZM470.125 186.166C471.36 186.591 472.578 186.933 473.772 187.199L477.898 168.652C477.408 168.543 476.876 168.395 476.305 168.199L470.125 186.166ZM473.77 187.198C483.629 189.394 491.691 186.303 495.77 182.463L482.748 168.628C483.067 168.327 483.193 168.294 483.012 168.389C482.869 168.465 482.578 168.595 482.141 168.709C481.302 168.928 479.891 169.096 477.901 168.653L473.77 187.198ZM497.07 180.952C498.666 178.647 500.71 174.513 500.078 169.485C499.346 163.665 495.429 159.382 490.166 156.915L482.1 174.118C482.652 174.377 482.471 174.41 482.095 173.949C481.67 173.427 481.33 172.68 481.226 171.855C481.133 171.115 481.263 170.604 481.326 170.41C481.386 170.223 481.438 170.153 481.447 170.139L497.07 180.952ZM475.751 344.492C480.524 341.117 487.817 335.429 494.441 329.137C497.756 325.988 501.038 322.561 503.785 319.089C506.438 315.735 509.046 311.779 510.408 307.59L492.339 301.715C491.998 302.764 490.984 304.646 488.884 307.301C486.877 309.838 484.274 312.589 481.356 315.361C475.515 320.909 468.957 326.025 464.78 328.98L475.751 344.492ZM507.338 297.258C488.751 282.265 474.104 260.758 460.242 235.87L443.643 245.115C457.826 270.578 473.908 294.703 495.409 312.047L507.338 297.258ZM290.559 83.3422C314.459 82.3822 333.501 89.4253 349.799 101.672L361.212 86.4821C341.663 71.7918 318.371 63.2097 289.796 64.3575L290.559 83.3422ZM240.063 96.6309C241.64 90.9837 240.355 85.6094 238.163 81.343C235.989 77.1099 232.688 73.4417 229.103 70.4863C222.08 64.696 212.18 60.2073 202.56 60.074L202.297 79.0722C206.676 79.1329 212.538 81.4544 217.017 85.1466C219.183 86.9323 220.568 88.6734 221.262 90.0245C221.939 91.3422 221.705 91.7271 221.763 91.5209L240.063 96.6309ZM398.757 67.9332C396.937 66.8728 395.049 66.0537 393.106 65.4702L387.642 83.6677C388.129 83.8139 388.642 84.0297 389.192 84.3501L398.757 67.9332ZM399.546 162.16C406.413 173.795 412.837 185.963 419.198 198.328L436.094 189.637C429.691 177.19 423.064 164.627 415.908 152.503L399.546 162.16ZM415.908 152.503C415.382 151.611 414.848 150.714 414.306 149.814L398.028 159.613C398.537 160.458 399.042 161.306 399.546 162.16L415.908 152.503ZM377.991 130.332C385.191 139.499 391.94 149.5 398.029 159.614L414.306 149.814C407.886 139.151 400.699 128.484 392.934 118.596L377.991 130.332ZM247.502 87.7346L242.248 61.9327L223.63 65.7237L228.884 91.5256L247.502 87.7346ZM227.306 71.4782L249.834 88.0651L261.099 72.765L238.571 56.1781L227.306 71.4782ZM250.995 72.0332L233.721 81.2482L242.664 98.0119L259.938 88.7969L250.995 72.0332ZM357.602 91.5781L362.856 65.7762L344.238 61.9851L338.984 87.787L357.602 91.5781ZM347.914 56.2306L325.386 72.8174L336.652 88.1176L359.179 71.5307L347.914 56.2306ZM326.548 88.8494L343.821 98.0644L352.764 81.3006L335.49 72.0856L326.548 88.8494ZM416.865 199.758L440.566 193.378L435.627 175.031L411.926 181.411L416.865 199.758ZM431.505 177.364L427.005 181.7L440.188 195.382L444.688 191.046L431.505 177.364ZM427.509 181.247L411.956 194.227L424.13 208.815L439.683 195.835L427.509 181.247ZM427.055 198.515L423.408 187.579L405.384 193.59L409.031 204.527L427.055 198.515ZM264.68 97.164L266.502 70.9393L247.548 69.622L245.725 95.8467L264.68 97.164ZM249.71 76.3426L266.886 97.0679L281.516 84.9441L264.34 64.2188L249.71 76.3426ZM271.56 81.8806L252.561 87.3799L257.844 105.631L276.842 100.131L271.56 81.8806ZM312.569 85.9345L303.125 61.4006L285.394 68.2258L294.837 92.7597L312.569 85.9345ZM285.487 61.1666L275.156 86.0202L292.7 93.3134L303.032 68.4598L285.487 61.1666ZM284.082 99.1656L303.856 98.8459L303.549 79.8483L283.774 80.168L284.082 99.1656ZM299.107 97.1373L282.263 76.9529L267.675 89.1266L284.519 109.311L299.107 97.1373ZM265.489 82.4136L263.715 109.27L282.674 110.523L284.448 83.666L265.489 82.4136ZM276.399 118.84L295.018 112.167L288.608 94.2811L269.989 100.954L276.399 118.84ZM338.355 97.069L339.72 70.773L320.746 69.7883L319.381 96.0843L338.355 97.069ZM323.527 63.5515L303.712 83.298L317.123 96.7564L336.939 77.0099L323.527 63.5515ZM307.24 98.9799L325.69 105.529L332.046 87.624L313.595 81.0745L307.24 98.9799ZM302.46 109.311L319.304 89.1266L304.717 76.9529L287.872 97.1373L302.46 109.311ZM302.531 83.666L304.305 110.523L323.264 109.27L321.49 82.4136L302.531 83.666ZM316.99 100.954L298.371 94.2811L291.961 112.167L310.58 118.84L316.99 100.954ZM475.727 282.788L500.731 274.66L494.857 256.591L469.854 264.719L475.727 282.788ZM489.436 261.111L476.643 284.794L493.361 293.824L506.153 270.14L489.436 261.111ZM492.475 283.443L480.263 267.887L465.318 279.619L477.529 295.175L492.475 283.443ZM461.114 262.291L486.779 256.582L482.653 238.035L456.988 243.745L461.114 262.291ZM476.825 242.018L461.836 264.374L477.617 274.955L492.606 252.599L476.825 242.018ZM477.723 264.536L467.048 247.89L451.054 258.146L461.729 274.793L477.723 264.536ZM490.291 299.387L514.61 289.396L507.39 271.821L483.071 281.812L490.291 299.387ZM502.324 276.737L491.357 301.317L508.708 309.059L519.676 284.48L502.324 276.737ZM507.041 298.775L493.689 284.186L479.673 297.013L493.024 311.602L507.041 298.775ZM479.351 310.322L503.67 300.331L496.45 282.756L472.131 292.747L479.351 310.322ZM112.033 332.806L88.0819 343.649L95.9181 360.958L119.869 350.115L112.033 332.806ZM88.8675 361.272L114.281 370.149L120.546 352.211L95.1325 343.335L88.8675 361.272ZM126.888 360.477L125.425 340.758L106.477 342.163L107.94 361.883L126.888 360.477ZM117.721 308.671L91.8963 313.604L95.4608 332.266L121.286 327.334L117.721 308.671ZM88.5322 330.92L111.159 345.503L121.452 329.532L98.8249 314.95L88.5322 330.92ZM125.68 339.054L128.879 319.539L110.129 316.466L106.931 335.981L125.68 339.054ZM123.507 282.448L97.4492 285.949L99.9791 304.779L126.037 301.278L123.507 282.448ZM93.1354 303.053L114.923 318.861L126.081 303.482L104.293 287.675L93.1354 303.053ZM129.778 313.223L134.048 293.914L115.496 289.812L111.226 309.12L129.778 313.223ZM464.772 291.578L490.304 285.308L485.773 266.856L460.241 273.126L464.772 291.578ZM480.034 270.965L465.538 293.644L481.547 303.877L496.043 281.198L480.034 270.965ZM481.425 293.458L470.389 277.05L454.623 287.654L465.66 304.062L481.425 293.458ZM450.187 271.527L475.719 265.255L471.187 246.804L445.654 253.075L450.187 271.527ZM465.448 250.913L450.952 273.593L466.962 283.826L481.458 261.146L465.448 250.913ZM466.84 273.408L455.803 256.999L440.038 267.603L451.074 284.012L466.84 273.408ZM135.337 255.666L109.258 259.004L111.67 277.851L137.75 274.513L135.337 255.666ZM104.837 276.082L126.525 292.025L137.779 276.717L116.091 260.773L104.837 276.082ZM141.415 286.48L145.806 267.199L127.281 262.98L122.889 282.262L141.415 286.48ZM142.2 223.911L116.083 226.942L118.273 245.816L144.39 242.785L142.2 223.911ZM111.462 243.967L132.962 260.164L144.394 244.988L122.894 228.791L111.462 243.967ZM147.915 254.794L152.532 235.566L134.058 231.13L129.441 250.358L147.915 254.794ZM153.69 191.811L127.401 191.392L127.098 210.389L153.387 210.809L153.69 191.811ZM120.588 207.663L139.777 226.539L153.101 212.994L133.911 194.118L120.588 207.663ZM155.306 223.177L162.405 204.721L144.672 197.899L137.572 216.356L155.306 223.177ZM436.613 260.355L437.432 261.767L453.865 252.23L453.046 250.818L436.613 260.355ZM407.877 174.381L434.153 175.282L434.804 156.293L408.528 155.392L407.877 174.381ZM428.165 158.689L408.052 176.578L420.68 190.775L440.792 172.885L428.165 158.689ZM423.393 180.716L417.229 161.926L399.176 167.848L405.339 186.638L423.393 180.716ZM400.477 159.154L402.49 162.844L419.171 153.748L417.158 150.057L400.477 159.154ZM402.897 163.522L411.958 177.278L427.825 166.826L418.764 153.07L402.897 163.522ZM168.877 164.584L142.585 164.677L142.652 183.677L168.944 183.584L168.877 164.584ZM136.09 181.078L155.643 199.577L168.701 185.775L149.148 167.276L136.09 181.078ZM171.104 195.913L177.842 177.321L159.979 170.847L153.241 189.439L171.104 195.913ZM402.865 162.955L422.984 195.522L439.148 185.536L419.029 152.969L402.865 162.955ZM392.932 118.596C383.296 106.325 372.607 95.0461 361.213 86.4825L349.798 101.671C359.458 108.931 368.995 118.878 377.99 130.331L392.932 118.596ZM350.384 86.0752C315.717 108.262 285.085 107.675 263.705 101.063L258.091 119.214C284.473 127.373 320.955 127.468 360.626 102.078L350.384 86.0752ZM263.705 101.063C251.527 97.2967 242.395 91.5838 237.237 86.9858L224.594 101.169C231.911 107.691 243.48 114.696 258.091 119.214L263.705 101.063ZM225.544 86.2423C214.788 93.6171 204.92 102.554 195.884 112.614L210.019 125.31C218.208 116.194 226.961 108.308 236.288 101.912L225.544 86.2423ZM195.884 112.614C194.949 113.655 194.022 114.708 193.104 115.773L207.498 128.176C208.332 127.208 209.172 126.253 210.019 125.31L195.884 112.614ZM169.546 148.462C161.758 163.863 151.149 193.048 143.792 232.324L162.467 235.822C169.57 197.901 179.692 170.5 186.501 157.035L169.546 148.462ZM415.671 157.622C415.666 156.595 415.664 155.628 415.666 154.729L396.666 154.696C396.664 155.639 396.666 156.65 396.671 157.718L415.671 157.622ZM396.667 154.697C396.666 155.63 396.666 156.642 396.671 157.718L415.671 157.622C415.666 156.604 415.666 155.639 415.667 154.731L396.667 154.697ZM396.671 157.718C396.71 165.344 396.94 176.028 397.54 185.818C397.84 190.706 398.238 195.482 398.768 199.594C399.266 203.446 399.976 207.566 401.174 210.63L418.869 203.71C418.597 203.016 418.101 200.948 417.612 197.162C417.157 193.636 416.791 189.325 416.505 184.656C415.933 175.332 415.708 165.024 415.671 157.622L396.671 157.718ZM413.354 163.887C414.236 162.869 415.122 161.842 416.014 160.807L401.621 148.404C400.738 149.428 399.861 150.444 398.988 151.453L413.354 163.887ZM418.867 203.709C418.595 203.015 418.099 200.948 417.611 197.162C417.156 193.636 416.789 189.325 416.504 184.656C415.933 175.332 415.708 165.025 415.671 157.622L396.671 157.718C396.71 165.344 396.94 176.028 397.539 185.818C397.838 190.705 398.236 195.481 398.767 199.593C399.264 203.445 399.974 207.565 401.172 210.629L418.867 203.709ZM224.591 101.167C231.907 107.69 243.478 114.695 258.091 119.214L263.705 101.063C251.525 97.2959 242.392 91.5825 237.235 86.9847L224.591 101.167ZM225.541 86.2408C214.784 93.6162 204.919 102.555 195.884 112.614L210.019 125.31C218.209 116.193 226.959 108.306 236.285 101.911L225.541 86.2408ZM195.884 112.614C194.953 113.65 194.025 114.703 193.102 115.774L207.496 128.177C208.326 127.213 209.167 126.259 210.019 125.31L195.884 112.614ZM159.033 255.207L160.639 246.238L141.937 242.889L140.331 251.858L159.033 255.207ZM160.663 246.101C161.237 242.596 161.841 239.169 162.467 235.822L143.792 232.324C143.139 235.81 142.511 239.379 141.913 243.025L160.663 246.101ZM169.543 148.462C161.755 163.863 151.148 193.048 143.792 232.324L162.467 235.821C169.57 197.9 179.69 170.5 186.499 157.036L169.543 148.462ZM258.091 119.214C284.473 127.373 320.953 127.467 360.624 102.077L350.382 86.0743C315.715 108.261 285.084 107.674 263.705 101.063L258.091 119.214ZM449.334 240.161L458.443 238.562L455.156 219.848L446.048 221.448L449.334 240.161ZM465.571 232.854C473.267 214.355 480.339 194.592 484.855 180.902L466.811 174.95C462.41 188.292 455.501 207.592 448.028 225.556L465.571 232.854ZM469.888 149.092C469.701 149.053 470.632 149.194 471.743 150.206C473.054 151.398 473.782 153.043 473.919 154.596C474.032 155.886 473.711 156.693 473.676 156.78C473.621 156.92 473.638 156.832 473.844 156.538L458.279 145.642C457.039 147.413 454.563 151.386 454.992 156.262C455.247 159.164 456.521 162.043 458.955 164.258C461.189 166.291 463.82 167.242 466.061 167.702L469.888 149.092ZM473.844 156.538C474.076 156.207 474.386 155.843 474.692 155.538L461.257 142.102C460.276 143.083 459.227 144.287 458.279 145.642L473.844 156.538ZM449.545 158.124C448.263 159.662 447.01 161.141 445.78 162.566L460.167 174.977C461.472 173.464 462.794 171.904 464.14 170.289L449.545 158.124ZM445.78 162.567C442.513 166.354 439.411 169.766 436.379 172.908L450.05 186.102C453.36 182.672 456.701 178.995 460.167 174.977L445.78 162.567ZM444.858 188.862L448.689 188.189L445.402 169.476L441.571 170.148L444.858 188.862ZM439.284 195.729L436.155 190.329L419.716 199.856L422.845 205.255L439.284 195.729ZM454.298 257.756L461.112 243.107L443.884 235.093L437.07 249.742L454.298 257.756ZM460.718 234.337L455.911 226.042L439.471 235.567L444.278 243.863L460.718 234.337ZM465.826 243.153L460.718 234.337L444.278 243.863L449.386 252.679L465.826 243.153ZM444.977 232.743L443.884 235.093L461.112 243.107L462.205 240.757L444.977 232.743ZM437.07 249.742L436.215 251.58L453.443 259.593L454.298 257.756L437.07 249.742ZM423.232 185.155L420.102 189.718L435.769 200.467L438.9 195.903L423.232 185.155ZM436.155 190.329L429.369 178.618L412.929 188.144L419.716 199.856L436.155 190.329ZM436.379 172.908C431.429 178.037 426.635 182.478 421.581 186.671L433.711 201.294C439.322 196.64 444.629 191.72 450.05 186.102L436.379 172.908ZM460.618 244.365C462.288 240.622 463.946 236.761 465.571 232.854L448.028 225.556C446.456 229.335 444.863 233.045 443.268 236.62L460.618 244.365ZM454.168 258.023C456.323 253.745 458.486 249.141 460.618 244.365L443.268 236.62C441.228 241.189 439.193 245.517 437.2 249.475L454.168 258.023ZM458.278 145.643C457.038 147.414 454.563 151.389 454.993 156.265C455.249 159.166 456.524 162.045 458.957 164.258C461.191 166.291 463.822 167.242 466.062 167.702L469.89 149.092C469.703 149.053 470.633 149.194 471.744 150.205C473.054 151.397 473.782 153.041 473.92 154.593C474.033 155.883 473.712 156.69 473.677 156.778C473.622 156.919 473.639 156.831 473.845 156.537L458.278 145.643ZM422.793 192.738L444.858 188.862L441.571 170.148L419.506 174.024L422.793 192.738ZM466.814 174.949C462.413 188.291 455.502 207.592 448.029 225.556L465.571 232.854C473.267 214.355 480.341 194.592 484.857 180.901L466.814 174.949ZM436.379 172.908C431.43 178.035 426.634 182.477 421.578 186.67L433.709 201.294C439.319 196.64 444.628 191.721 450.05 186.103L436.379 172.908ZM458.443 238.562L475.229 235.613L471.943 216.9L455.156 219.848L458.443 238.562Z" fill="white"/>
<path d="M448 230.62L474 226L457.955 248L448 230.62Z" fill="#003FA1" stroke="#271812" stroke-width="0.718418" stroke-linecap="round"/>
<path d="M421 183.62L447 179L430.955 201L421 183.62Z" fill="#003FA1" stroke="#271812" stroke-width="0.718418" stroke-linecap="round"/>
<path d="M267 78L272.81 52L287 75.3469L267 78Z" fill="#003FA1" stroke="#271812" stroke-width="0.718418" stroke-linecap="round"/>
<path d="M320 78L314.19 52L300 75.3469L320 78Z" fill="#003FA1" stroke="#271812" stroke-width="0.718418" stroke-linecap="round"/>
<path d="M301 166C301 170.971 295.403 175 288.5 175C281.597 175 276 170.971 276 166C276 161.029 281.597 157 288.5 157C295.403 157 301 161.029 301 166Z" fill="#4E3E3E"/>
<path d="M224 171C224 173.761 220.642 176 216.5 176C212.358 176 209 173.761 209 171C209 168.238 212.358 166 216.5 166C220.642 166 224 168.238 224 171Z" fill="#FFC9C9"/>
<path d="M365.866 167.485C366.641 170.31 363.972 173.503 359.905 174.616C355.836 175.729 351.909 174.341 351.134 171.515C350.358 168.69 353.027 165.497 357.096 164.384C361.164 163.271 365.09 164.659 365.866 167.485Z" fill="#FFC9C9"/>
<path d="M391 74.6932C377.064 70.4846 361.692 86.492 356 94.362C366.568 102.339 376.719 113.04 386.07 125C386.51 116.682 391 100.045 379.826 100.045C378.512 93.1798 386.729 80.2833 391 74.6932Z" fill="#FECBAE"/>
<path d="M407.311 158C410.175 135.565 424.15 94.5636 393.71 76.578C392.538 75.8856 391.35 75.3659 390.148 75C385.94 80.5602 377.844 93.3877 379.139 100.217C390.148 100.217 385.724 116.764 385.291 125.038C392.691 134.592 399.582 144.956 405.767 155.374C406.287 156.249 406.801 157.124 407.311 158Z" fill="#FB976D"/>
<path d="M290.46 74.0951C268.287 74.9867 248.53 82.3763 231 94.4084C248.412 109.947 297.789 131.702 356 94.4084C338.018 80.882 316.783 73.0366 290.46 74.0951Z" fill="#0553CC"/>
<path d="M175.397 158C176.311 156.455 177.236 154.923 178.172 153.404C185.024 142.289 192.472 131.903 200.547 122.547C196.47 97.8608 207.946 93.6111 214.193 94.572C217.877 86.8987 208.055 74.995 202.683 70.0021C199.573 69.9592 196.635 70.5657 194.133 71.9929C158.92 92.0785 166.625 136.662 175.397 158Z" fill="#FB976D"/>
<path d="M230.651 94.3152C233.707 83.5166 216.079 70.1924 201.997 70C207.376 74.9411 217.213 86.7215 213.524 94.3152C207.267 93.3643 195.774 97.5699 199.857 122C209.257 111.239 219.505 101.854 230.651 94.3152Z" fill="#FECBAE"/>
<path d="M433 273.912C438.478 288.076 453.701 320.324 470.785 336C479.766 329.686 498.582 314.447 502 303.998C481.887 287.87 466.47 265.112 452.399 240C445.646 255.038 438.755 267.936 433 273.912Z" fill="#0553CC"/>
<path d="M427 193.927C420.761 181.629 414.382 169.372 407.527 157.596C407.023 156.731 406.514 155.865 406.001 155C405.976 169.012 406.695 199.03 409.769 207C416.083 202.604 421.685 198.398 427 193.927Z" fill="#0553CC"/>
<path d="M146.575 374C136.832 264.414 163.465 181.551 178 153C177.063 154.512 176.137 156.038 175.222 157.577C137.727 220.646 118.809 305.207 113 358.633C121.449 364.3 135.054 369.423 146.575 374Z" fill="#0553CC"/>
<path d="M344.889 157C347.799 155.367 354.369 153.081 357.82 153.081C359.758 153.081 361.374 134.14 344.889 138.712C341.124 139.756 333.77 150.991 344.889 157Z" fill="#271812"/>
<path d="M217.74 156.756C220.934 156.215 228.445 156.107 232.938 160C240.536 156.756 239.251 144.753 231.286 142.483C221.044 139.563 214.767 150.592 217.74 156.756Z" fill="#271812"/>
<path fill-rule="evenodd" clip-rule="evenodd" d="M455.053 137.951C448.246 140.571 454.181 155.416 457.018 164.148C446.515 176.758 437.649 185.782 427.833 193.931C422.398 198.442 416.672 202.686 410.216 207.122C407.074 199.08 406.339 168.791 406.364 154.652C400.113 144.261 393.148 133.925 385.669 124.395C376.357 112.529 366.248 101.914 355.725 94C297.732 131.143 248.539 109.476 231.192 94C220.117 101.599 209.933 111.059 200.593 121.906C192.556 131.239 185.144 141.599 178.325 152.687C163.874 181.286 137.393 264.286 147.081 374.053C216.901 394.573 379.32 415.835 470.435 336.722C453.417 321.002 438.253 288.664 432.797 274.461C438.53 268.468 445.394 255.533 452.12 240.453C461.497 219.431 470.604 194.24 476 177.871C475.158 177.683 474.284 177.439 473.381 177.128C465.002 174.246 467.708 169.606 470.435 167.096C464.413 164.738 466.18 160.711 468.145 158.337C461.846 157.041 465.344 151.56 468.145 148.758C460.289 137.624 459.417 137.296 455.053 137.951ZM232.829 160.546C228.378 156.617 220.938 156.726 217.774 157.272C214.828 151.05 221.047 139.916 231.192 142.863C239.084 145.156 240.356 157.272 232.829 160.546ZM358.506 152.687C355.012 152.687 348.36 154.979 345.414 156.617C334.156 150.591 341.602 139.326 345.414 138.279C362.104 133.694 360.469 152.687 358.506 152.687ZM288.794 174.955C295.663 174.955 301.231 170.996 301.231 166.113C301.231 161.23 295.663 157.272 288.794 157.272C281.925 157.272 276.357 161.23 276.357 166.113C276.357 170.996 281.925 174.955 288.794 174.955ZM217.119 176.919C221.277 176.919 224.647 174.574 224.647 171.68C224.647 168.786 221.277 166.441 217.119 166.441C212.962 166.441 209.592 168.786 209.592 171.68C209.592 174.574 212.962 176.919 217.119 176.919ZM359.697 173.953C363.705 172.854 366.336 169.7 365.572 166.909C364.807 164.119 360.938 162.747 356.928 163.847C352.919 164.946 350.288 168.1 351.053 170.891C351.816 173.681 355.687 175.052 359.697 173.953ZM183.628 371.009C183.997 370.062 184.362 369.007 184.718 367.83C184.182 368.882 183.829 369.958 183.628 371.009Z" fill="#FFF1E4"/>
<path d="M485.101 154.929C483.775 156.428 478.873 159.3 469.862 158.786C469.113 158.743 468.453 158.661 467.875 158.546C465.887 160.876 464.099 164.828 470.193 167.143C475.194 169.041 481.873 167.465 486.244 165.536C487.202 165.113 488.049 164.674 488.744 164.25C491.598 161.786 495.19 156.086 486.73 153C486.231 153.767 485.638 154.434 485.101 154.929Z" fill="#F8E9DB"/>
<path d="M484.289 145.246C478.148 144.244 471.04 146.47 467.485 148.919C464.721 151.776 461.267 157.366 467.485 158.688C468.048 158.808 468.693 158.892 469.423 158.937C478.213 159.471 482.995 156.488 484.289 154.93C484.812 154.416 485.39 153.723 485.877 152.926C487.292 150.614 487.941 147.431 484.289 145.246Z" fill="#F8E9DB"/>
<path d="M470.679 167.648C467.966 170.174 465.272 174.843 473.612 177.743C474.51 178.056 475.38 178.302 476.218 178.491C483.15 180.053 487.926 177.664 489.572 176.096C491.301 173.569 492.576 168.9 486.463 166C482.165 167.978 475.597 169.594 470.679 167.648Z" fill="#F8E9DB"/>
<path d="M407.356 208.975C408.131 208.452 408.895 207.932 409.649 207.416M409.649 207.416C416.108 202.987 421.836 198.75 427.273 194.246M409.649 207.416C406.505 199.386 405.77 169.145 405.795 155.029M467.603 149.144C459.744 138.028 458.871 137.701 454.505 138.355C447.695 140.97 453.632 155.792 456.471 164.51C445.963 177.1 437.094 186.109 427.273 194.246M467.603 149.144C471.205 146.746 478.407 144.567 484.629 145.547C488.331 147.687 487.673 150.803 486.239 153.067M467.603 149.144C464.801 151.942 461.302 157.414 467.603 158.708M427.273 194.246C420.891 181.856 414.367 169.508 407.356 157.644M486.239 153.067C485.746 153.847 485.16 154.526 484.629 155.029C483.319 156.555 478.473 159.475 469.566 158.952C468.826 158.909 468.173 158.826 467.603 158.708M486.239 153.067C494.601 156.206 491.051 162.004 488.23 164.51C487.543 164.941 486.706 165.388 485.759 165.818M467.603 158.708C465.637 161.078 463.87 165.099 469.894 167.453M469.894 167.453C467.166 169.959 464.459 174.592 472.841 177.469C473.744 177.779 474.619 178.024 475.461 178.211M469.894 167.453C474.837 169.384 481.439 167.78 485.759 165.818M475.461 178.211C482.429 179.761 487.229 177.39 488.884 175.834C490.622 173.328 491.904 168.695 485.759 165.818M475.461 178.211C470.063 194.554 460.952 219.706 451.571 240.695M451.571 240.695C444.842 255.751 437.975 268.664 432.24 274.648M451.571 240.695C465.593 265.837 480.957 288.623 501 304.77C497.594 315.232 478.844 330.489 469.894 336.811M427.656 277.96C429.074 277.489 430.612 276.347 432.24 274.648M432.24 274.648C437.698 288.829 452.869 321.116 469.894 336.811M469.894 336.811C378.739 415.799 216.248 394.571 146.397 374.083M146.397 374.083C136.706 264.489 163.198 181.62 177.655 153.067M146.397 374.083C134.937 369.505 121.404 364.382 113 358.715C118.778 305.284 137.595 220.718 174.892 157.644M230.546 94.4727C248.019 82.5083 267.71 75.1601 289.81 74.2735C316.046 73.221 337.211 81.0223 355.134 94.4727M230.546 94.4727C247.901 109.924 297.114 131.557 355.134 94.4727M230.546 94.4727C233.584 83.6051 216.059 70.1957 202.06 70.0021M230.546 94.4727C219.466 102.06 209.277 111.504 199.933 122.334M355.134 94.4727C360.804 86.6774 376.119 70.822 390.002 74.9907M355.134 94.4727C365.662 102.374 375.775 112.973 385.09 124.82M202.06 70.0021C198.963 69.9594 196.038 70.5634 193.547 71.9849C158.487 91.9893 166.158 136.393 174.892 157.644M202.06 70.0021C207.408 74.9748 217.187 86.8304 213.52 94.4727C207.299 93.5157 195.874 97.7482 199.933 122.334M199.933 122.334C191.893 131.653 184.477 141.997 177.655 153.067M390.002 74.9907C391.217 75.3551 392.419 75.8726 393.604 76.5621C424.383 94.4727 410.251 135.303 407.356 157.644M390.002 74.9907C385.747 80.5277 377.561 93.3016 378.87 100.102C390.002 100.102 385.528 116.58 385.09 124.82M385.09 124.82C392.573 134.334 399.541 144.654 405.795 155.029M177.655 153.067C176.723 154.58 175.802 156.106 174.892 157.644M150.654 321.443C155.238 332.56 166.501 356.362 174.884 362.639C171.206 374.879 177.567 384.826 182.96 371.044M182.96 371.044C181.439 378.946 188.5 385.381 189.945 369.505C189.945 372.774 190.535 379.314 192.892 379.314C195.249 379.314 195.839 371.684 195.839 367.87C195.839 366.453 195.249 362.835 192.892 359.695C189.945 355.773 185.689 317.193 191.255 298.885M182.96 371.044C183.33 370.099 183.695 369.044 184.051 367.87C183.515 368.92 183.162 369.995 182.96 371.044ZM288.173 175.299C295.045 175.299 300.616 171.347 300.616 166.472C300.616 161.597 295.045 157.644 288.173 157.644C281.301 157.644 275.73 161.597 275.73 166.472C275.73 171.347 281.301 175.299 288.173 175.299ZM288.173 175.299V191.228M288.173 191.228C272.744 190.104 259.026 183.48 251.501 178.085M288.173 191.228C300.945 192.158 314.89 189.32 327.464 178.896M251.501 167.453C252.289 171.851 252.332 175.139 251.501 178.085M251.501 178.085C250.575 181.369 248.562 184.227 245.28 187.723M326.809 165.164C325.827 170.286 325.631 181.707 332.702 186.415M280.642 199.82C282.498 200.91 288.369 202.436 297.014 199.82M407.356 157.644C406.84 156.772 406.32 155.9 405.795 155.029M217.121 157.644C220.287 157.099 227.73 156.99 232.183 160.914C239.714 157.644 238.441 145.547 230.546 143.259C220.396 140.316 214.175 151.432 217.121 157.644ZM344.818 156.99C347.765 155.356 354.421 153.067 357.915 153.067C359.879 153.067 361.516 134.104 344.818 138.682C341.004 139.727 333.555 150.975 344.818 156.99ZM223.997 172.03C223.997 174.919 220.626 177.261 216.467 177.261C212.307 177.261 208.936 174.919 208.936 172.03C208.936 169.141 212.307 166.799 216.467 166.799C220.626 166.799 223.997 169.141 223.997 172.03ZM364.985 167.267C365.749 170.053 363.117 173.202 359.107 174.299C355.095 175.397 351.223 174.028 350.459 171.242C349.694 168.455 352.326 165.307 356.337 164.209C360.349 163.111 364.22 164.48 364.985 167.267Z" stroke="#271812" stroke-width="0.718418" stroke-linecap="round"/>
<path d="M238.364 90L233 64L256 80.7142L238.364 90Z" fill="#003FA1" stroke="#271812" stroke-width="0.718418" stroke-linecap="round"/>
<path d="M348.636 90L354 64L331 80.7142L348.636 90Z" fill="#003FA1" stroke="#271812" stroke-width="0.718418" stroke-linecap="round"/>
<path d="M414 190.263L438 184L433.443 188.257L417.693 201L414 190.263Z" fill="#003FA1" stroke="#271812" stroke-width="0.718418" stroke-linecap="round"/>
<path d="M255 96L256.823 70L274 90.5478L255 96Z" fill="#003FA1" stroke="#271812" stroke-width="0.718418" stroke-linecap="round"/>
<path d="M304 89.6784L294.449 65L284 90L304 89.6784Z" fill="#003FA1" stroke="#271812" stroke-width="0.718418" stroke-linecap="round"/>
<path d="M292 103.292L274.811 83L273 110L292 103.292Z" fill="#003FA1" stroke="#271812" stroke-width="0.718418" stroke-linecap="round"/>
<path d="M328.623 96L330 70L310 89.5243L328.623 96Z" fill="#003FA1" stroke="#271812" stroke-width="0.718418" stroke-linecap="round"/>
<path d="M295 103.292L312.189 83L314 110L295 103.292Z" fill="#003FA1" stroke="#271812" stroke-width="0.718418" stroke-linecap="round"/>
<path d="M473 274.236L498 266L485.21 290L473 274.236Z" fill="#003FA1" stroke="#271812" stroke-width="0.718418" stroke-linecap="round"/>
<path d="M459 252.618L485 247L469.815 269L459 252.618Z" fill="#003FA1" stroke="#271812" stroke-width="0.718418" stroke-linecap="round"/>
<path d="M487 291.161L511 281L500.176 306L487 291.161Z" fill="#003FA1" stroke="#271812" stroke-width="0.718418" stroke-linecap="round"/>
<path d="M476 302.161L500 292L489.176 317L476 302.161Z" fill="#003FA1" stroke="#271812" stroke-width="0.718418" stroke-linecap="round"/>
<path d="M115.561 341L92 351.997L117 361L115.561 341Z" fill="#003FA1" stroke="#271812" stroke-width="0.718418" stroke-linecap="round"/>
<path d="M120 318L94 323.055L116.78 338L120 318Z" fill="#003FA1" stroke="#271812" stroke-width="0.718418" stroke-linecap="round"/>
<path d="M125 292L99 295.445L120.74 311L125 292Z" fill="#003FA1" stroke="#271812" stroke-width="0.718418" stroke-linecap="round"/>
<path d="M463 282.359L489 276L474.239 299L463 282.359Z" fill="#003FA1" stroke="#271812" stroke-width="0.718418" stroke-linecap="round"/>
<path d="M448 262.36L474 256L459.239 279L448 262.36Z" fill="#003FA1" stroke="#271812" stroke-width="0.718418" stroke-linecap="round"/>
<path d="M450 291.358L476 285L461.24 308L450 291.358Z" fill="#003FA1" stroke="#271812" stroke-width="0.718418" stroke-linecap="round"/>
<path d="M465 312.161L489 302L478.176 327L465 312.161Z" fill="#003FA1" stroke="#271812" stroke-width="0.718418" stroke-linecap="round"/>
<path d="M128.12 341L104 352.491L130 361L128.12 341Z" fill="#003FA1" stroke="#271812" stroke-width="0.718418" stroke-linecap="round"/>
<path d="M129 319L104 325.952L127.296 339L129 319Z" fill="#003FA1" stroke="#271812" stroke-width="0.718418" stroke-linecap="round"/>
<path d="M135 293L109 298.558L132.155 313L135 293Z" fill="#003FA1" stroke="#271812" stroke-width="0.718418" stroke-linecap="round"/>
<path d="M136 265L110 268.289L131.622 284L136 265Z" fill="#003FA1" stroke="#271812" stroke-width="0.718418" stroke-linecap="round"/>
<path d="M143 233L117 235.995L138.404 252L143 233Z" fill="#003FA1" stroke="#271812" stroke-width="0.718418" stroke-linecap="round"/>
<path d="M153 201.422L127 201L145.979 220L153 201.422Z" fill="#003FA1" stroke="#271812" stroke-width="0.718418" stroke-linecap="round"/>
<path d="M437 269.358L463 263L448.24 286L437 269.358Z" fill="#003FA1" stroke="#271812" stroke-width="0.718418" stroke-linecap="round"/>
<path d="M445.816 257L461 235L453.733 236.524L445 255.573L445.816 257Z" fill="#003FA1" stroke="#271812" stroke-width="0.718418" stroke-linecap="round"/>
<path d="M408 165L434 165.911L414.099 184L408 165Z" fill="#003FA1" stroke="#271812" stroke-width="0.718418" stroke-linecap="round"/>
<path d="M305.3 267.493L256 307C319.251 250.331 354.33 218.265 408.933 155L410.944 158.683L420 172.41L305.3 267.493Z" fill="#063276"/>
<path d="M144.495 340L121 351.086L146 360L144.495 340Z" fill="#003FA1" stroke="#271812" stroke-width="0.718418" stroke-linecap="round"/>
<path d="M143.814 317L119 326.379L144 337L143.814 317Z" fill="#003FA1" stroke="#271812" stroke-width="0.718418" stroke-linecap="round"/>
<path d="M145 293L120 301L144.096 313L145 293Z" fill="#003FA1" stroke="#271812" stroke-width="0.718418" stroke-linecap="round"/>
<path d="M148 266L122 271.96L145.46 286L148 266Z" fill="#003FA1" stroke="#271812" stroke-width="0.718418" stroke-linecap="round"/>
<path d="M153 234L127 238.442L149.5 253L153 234Z" fill="#003FA1" stroke="#271812" stroke-width="0.718418" stroke-linecap="round"/>
<path d="M160 202L134 204.416L154.977 221L160 202Z" fill="#003FA1" stroke="#271812" stroke-width="0.718418" stroke-linecap="round"/>
<path d="M169 174L143 174.095L162.336 193L169 174Z" fill="#003FA1" stroke="#271812" stroke-width="0.718418" stroke-linecap="round"/>
<path d="M131 366.721C255.274 302.384 322.035 257.644 410.912 158L431 190.532L417.17 210.702C335.233 297.922 299.431 329.785 204.743 386C176.251 381.809 146.922 374.265 131 366.721Z" fill="#0553CC" stroke="#0553CC" stroke-width="0.362199"/>
<path d="M179.618 376.869C180.624 376.246 181.63 375.073 182.601 373.302C182.668 374.151 182.827 374.943 183.057 375.649C183.551 377.169 184.429 378.445 185.591 378.845C186.203 379.055 186.852 379.003 187.463 378.663C188.056 378.33 188.582 377.746 189.039 376.939C189.488 376.147 189.892 375.096 190.232 373.76C190.293 374.134 190.362 374.503 190.441 374.861C190.669 375.903 190.983 376.89 191.421 377.632C191.851 378.362 192.495 379 193.416 379C194.385 379 195.021 378.228 195.43 377.42C195.858 376.573 196.168 375.441 196.395 374.233C196.85 371.808 197 368.918 197 366.995C197 365.482 196.377 361.742 193.903 358.49C193.768 358.313 193.601 357.996 193.414 357.513C193.231 357.038 193.041 356.437 192.849 355.719C192.464 354.282 192.078 352.41 191.713 350.2C190.983 345.785 190.345 340.063 189.974 333.889C189.231 321.517 189.569 307.435 192.345 298.42L192.783 297L191.467 297.722L150.473 320.204L150 320.463L150.206 320.956C152.527 326.511 156.536 335.231 161.028 343.352C163.275 347.411 165.646 351.329 167.992 354.632C170.213 357.755 172.436 360.362 174.532 362.008C173.677 364.978 173.405 367.81 173.568 370.209C173.737 372.696 174.378 374.787 175.397 376.067C175.912 376.713 176.552 377.184 177.305 377.348C178.068 377.512 178.857 377.34 179.618 376.869Z" fill="#FFF1E4" stroke="black" stroke-width="0.718418" stroke-linecap="round"/>
<path d="M150 321L197 295" stroke="#FFF1E4" stroke-width="1.43684" stroke-linecap="round"/>
</g>
</svg>
