<svg width="2492" height="745" viewBox="0 0 2492 745" fill="none" xmlns="http://www.w3.org/2000/svg">
<path d="M945.865 369.355C911.669 369.355 886.476 362.262 870.286 348.075C854.096 333.888 846.001 313.643 846.001 287.338C846.001 260.886 854.096 239.975 870.286 224.606C886.476 209.237 911.669 201.552 945.865 201.552C993.678 201.552 1025.68 217.586 1041.87 249.654C1028.25 254.235 1012.29 261.107 993.981 270.27C989.593 261.994 982.633 255.861 973.1 251.871C963.719 247.881 954.111 245.886 944.276 245.886C929.75 245.886 918.932 249.654 911.82 257.191C904.709 264.58 901.153 273.742 901.153 284.678C901.153 296.5 904.936 306.18 912.501 313.717C920.218 321.106 931.944 324.8 947.68 324.8C960.239 324.8 970.225 322.805 977.639 318.815C985.053 314.677 990.5 308.175 993.981 299.308C1006.39 305.81 1022.28 313.125 1041.64 321.253C1034.08 339.135 1021.44 351.622 1003.74 358.715C986.037 365.809 966.745 369.355 945.865 369.355Z" fill="white"/>
<path d="M1255.07 252.758C1231.31 252.019 1208.24 251.575 1185.85 251.428V367.139H1129.1V251.428C1106.56 251.575 1083.56 252.019 1060.11 252.758V206.207H1255.07V252.758Z" fill="white"/>
<path d="M1444.68 206.207C1444.08 207.833 1443.32 209.68 1442.42 211.749C1441.51 213.67 1440.6 215.887 1439.69 218.399C1431.37 238.497 1423.65 256.6 1416.54 272.708C1409.58 288.668 1401.26 306.845 1391.58 327.238C1383.1 344.972 1370.7 359.159 1354.35 369.799C1338.16 380.587 1317.74 385.759 1293.07 385.316C1289.9 372.459 1287.32 362.779 1285.36 356.277C1283.54 349.627 1281.04 342.829 1277.87 335.883C1286.79 337.805 1295.04 338.765 1302.61 338.765C1310.02 338.765 1316.68 337.805 1322.58 335.883C1311.68 308.544 1292.24 265.319 1264.25 206.207H1320.76L1356.85 289.111L1363.21 274.26C1378.94 237.758 1387.79 215.074 1389.76 206.207H1444.68Z" fill="white"/>
<path d="M1628.87 327.682H1638.18V403.714H1584.39V371.572H1483.16V404.379H1429.37V327.682H1440.72C1447.23 326.499 1452.22 323.913 1455.7 319.923C1459.18 315.933 1461.75 309.579 1463.42 300.86C1464.78 293.619 1465.46 277.141 1465.46 251.428L1465.23 206.207L1628.87 206.429V327.682ZM1516.3 318.15C1515.39 322.288 1514.56 325.465 1513.8 327.682H1571.45V249.654H1520.61L1520.39 262.511C1520.39 273.742 1520.08 283.643 1519.48 292.215C1519.02 300.638 1517.96 309.283 1516.3 318.15Z" fill="white"/>
<path d="M1759.37 206.429C1789.48 206.429 1810.43 211.675 1822.24 222.167C1834.04 232.512 1839.94 247.142 1839.94 266.058C1839.94 279.062 1837.59 290.146 1832.9 299.308C1828.21 308.323 1819.97 315.416 1808.16 320.588C1796.36 325.613 1780.1 328.125 1759.37 328.125H1712.16V367.139H1656.33C1657.54 338.47 1658.14 311.648 1658.14 286.673C1658.14 261.698 1657.54 234.876 1656.33 206.207H1712.16V206.429H1759.37ZM1743.48 285.343C1756.04 285.343 1765.42 284.9 1771.62 284.013C1777.98 282.978 1782.37 281.205 1784.79 278.693C1787.36 276.181 1788.65 272.486 1788.65 267.609C1788.65 262.733 1787.44 259.112 1785.01 256.748C1782.75 254.235 1778.43 252.536 1772.08 251.649C1765.87 250.763 1756.34 250.319 1743.48 250.319H1712.16V285.343H1743.48Z" fill="white"/>
<path d="M2001.23 367.139C1998.36 358.715 1994.5 348.149 1989.66 335.44H1917.26L1905.91 367.139H1848.94L1912.49 206.207H1996.01L2060.02 367.139H2001.23ZM1976.72 300.86C1970.97 285.343 1965.07 269.826 1959.02 254.309L1953.57 239.901C1948.28 253.349 1940.48 273.668 1930.2 300.86H1976.72Z" fill="white"/>
<path d="M2262.55 327.682H2271.86V403.714H2218.07V371.572H2116.84V404.379H2063.05V327.682H2074.4C2080.9 326.499 2085.9 323.913 2089.38 319.923C2092.86 315.933 2095.43 309.579 2097.09 300.86C2098.46 293.619 2099.14 277.141 2099.14 251.428L2098.91 206.207L2262.55 206.429V327.682ZM2149.98 318.15C2149.07 322.288 2148.24 325.465 2147.48 327.682H2205.13V249.654H2154.29L2154.06 262.511C2154.06 273.742 2153.76 283.643 2153.15 292.215C2152.7 300.638 2151.64 309.283 2149.98 318.15Z" fill="white"/>
<path d="M2433.22 367.139C2430.34 358.715 2426.48 348.149 2421.64 335.44H2349.24L2337.89 367.139H2280.93L2344.47 206.207H2428L2492 367.139H2433.22ZM2408.7 300.86C2402.95 285.343 2397.05 269.826 2391 254.309L2385.55 239.901C2380.26 253.349 2372.47 273.668 2362.18 300.86H2408.7Z" fill="white"/>
<path d="M992.165 498.034C1001.09 505.127 1007.9 513.034 1012.59 521.753C1017.43 530.324 1022.12 540.89 1026.66 553.451C1030.45 563.648 1033.47 570.815 1035.74 574.953H969.015C968.107 572.441 966.896 568.081 965.383 561.875C963.87 555.077 962.206 549.387 960.39 544.806C958.726 540.225 956.305 536.235 953.127 532.836C947.983 527.516 941.552 524.117 933.836 522.639C926.27 521.014 915.83 520.201 902.515 520.201V574.953H846.001C847.212 546.284 847.817 519.462 847.817 494.487C847.817 469.513 847.212 442.691 846.001 414.022H902.515V471.877C904.028 472.025 906.298 472.099 909.324 472.099C932.928 449.341 950.48 429.982 961.979 414.022H1035.51L964.93 482.739C974.916 486.581 983.994 491.679 992.165 498.034Z" fill="white"/>
<path d="M1237.29 414.022C1236.23 438.996 1235.7 465.818 1235.7 494.487C1235.7 523.157 1236.23 549.978 1237.29 574.953H1183.95V458.799H1107.24V574.953H1053.9C1055.11 546.284 1055.72 519.462 1055.72 494.487C1055.72 469.513 1055.11 442.691 1053.9 414.022H1237.29Z" fill="white"/>
<path d="M1387.24 458.134C1369.23 457.247 1355.92 456.73 1347.3 456.582V532.393C1356.07 532.245 1369.39 531.728 1387.24 530.841V574.953H1255.38V530.841C1272.78 531.728 1286.02 532.245 1295.09 532.393V456.582C1286.02 456.73 1272.78 457.247 1255.38 458.134V414.022H1387.24V458.134Z" fill="white"/>
<path d="M371.296 0C271.922 2.59042 177.508 42.9657 108.158 112.529C38.8087 182.092 0.00157746 275.347 0 372.438C0.0108182 469.523 38.822 562.77 108.171 632.325C177.519 701.881 271.928 742.251 371.296 744.841V372.421V0Z" fill="#1323E9"/>
<path d="M428.034 595.281C489.256 593.684 547.422 568.807 590.144 525.948C632.867 483.09 656.772 425.636 656.769 365.82C656.772 306.004 632.867 248.549 590.144 205.691C547.422 162.832 489.256 137.956 428.034 136.358V365.82V595.281Z" fill="#1323E9"/>
</svg>
