<svg width="200" height="60" viewBox="0 0 200 60" fill="none" xmlns="http://www.w3.org/2000/svg">
<path d="M75.9121 29.7531C73.1677 29.7531 71.1458 29.1817 69.8464 28.0389C68.547 26.8961 67.8974 25.2652 67.8974 23.1462C67.8974 21.0154 68.547 19.3309 69.8464 18.0929C71.1458 16.8549 73.1677 16.2358 75.9121 16.2358C79.7494 16.2358 82.3178 17.5275 83.6171 20.1107C82.5242 20.4797 81.2431 21.0332 79.7737 21.7713C79.4216 21.1047 78.863 20.6106 78.0979 20.2892C77.345 19.9678 76.5739 19.8071 75.7846 19.8071C74.6188 19.8071 73.7505 20.1107 73.1798 20.7178C72.609 21.313 72.3237 22.0511 72.3237 22.932C72.3237 23.8843 72.6273 24.664 73.2344 25.2711C73.8538 25.8664 74.7949 26.164 76.0578 26.164C77.0657 26.164 77.8672 26.0033 78.4622 25.6818C79.0572 25.3485 79.4944 24.8247 79.7737 24.1105C80.7695 24.6343 82.0446 25.2235 83.5989 25.8783C82.9918 27.3187 81.9778 28.3246 80.557 28.896C79.1362 29.4674 77.5879 29.7531 75.9121 29.7531Z" fill="#F2F2F2"/>
<path d="M100.728 20.3607C98.8213 20.3011 96.9694 20.2654 95.1722 20.2535V29.5745H90.6183V20.2535C88.809 20.2654 86.9631 20.3011 85.0809 20.3607V16.6108H100.728V20.3607Z" fill="#F2F2F2"/>
<path d="M115.946 16.6108C115.897 16.7418 115.837 16.8906 115.764 17.0572C115.691 17.212 115.618 17.3906 115.545 17.5929C114.877 19.2119 114.258 20.6702 113.687 21.9677C113.129 23.2534 112.461 24.7176 111.683 26.3604C111.003 27.7889 110.008 28.9317 108.696 29.7888C107.397 30.6578 105.757 31.0744 103.778 31.0387C103.523 30.0031 103.317 29.2233 103.159 28.6996C103.013 28.1639 102.813 27.6163 102.558 27.0568C103.274 27.2115 103.936 27.2889 104.543 27.2889C105.138 27.2889 105.672 27.2115 106.146 27.0568C105.272 24.8545 103.711 21.3725 101.465 16.6108H106L108.896 23.2891L109.407 22.0927C110.669 19.1524 111.38 17.3251 111.538 16.6108H115.946Z" fill="#F2F2F2"/>
<path d="M130.728 26.3961H131.475V32.5208H127.158V29.9316H119.034V32.5744H114.717V26.3961H115.628C116.15 26.3009 116.551 26.0925 116.83 25.7711C117.109 25.4497 117.316 24.9378 117.449 24.2355C117.559 23.6522 117.613 22.3248 117.613 20.2535L117.595 16.6108L130.728 16.6287V26.3961ZM121.693 25.6283C121.621 25.9616 121.554 26.2175 121.493 26.3961H126.12V20.1107H122.04L122.021 21.1463C122.021 22.0511 121.997 22.8486 121.948 23.5391C121.912 24.2176 121.827 24.914 121.693 25.6283Z" fill="#F2F2F2"/>
<path d="M141.201 16.6287C143.618 16.6287 145.3 17.0513 146.247 17.8965C147.194 18.7298 147.668 19.9083 147.668 21.432C147.668 22.4796 147.479 23.3724 147.103 24.1105C146.727 24.8366 146.065 25.408 145.118 25.8247C144.17 26.2294 142.865 26.4318 141.201 26.4318H137.412V29.5745H132.932C133.029 27.2651 133.077 25.1045 133.077 23.0927C133.077 21.0809 133.029 18.9203 132.932 16.6108H137.412V16.6287H141.201ZM139.926 22.9855C140.934 22.9855 141.687 22.9498 142.185 22.8784C142.695 22.7951 143.047 22.6522 143.241 22.4498C143.448 22.2475 143.551 21.9499 143.551 21.557C143.551 21.1642 143.454 20.8725 143.26 20.6821C143.077 20.4797 142.731 20.3428 142.221 20.2714C141.723 20.2 140.958 20.1642 139.926 20.1642H137.412V22.9855H139.926Z" fill="#F2F2F2"/>
<path d="M160.613 29.5745C160.382 28.896 160.072 28.0448 159.684 27.0211H153.873L152.962 29.5745H148.39L153.491 16.6108H160.194L165.331 29.5745H160.613ZM158.646 24.2355C158.184 22.9855 157.71 21.7356 157.225 20.4856L156.788 19.325C156.363 20.4083 155.737 22.0451 154.911 24.2355H158.646Z" fill="#F2F2F2"/>
<path d="M181.585 26.3961H182.332V32.5208H178.015V29.9316H169.891V32.5744H165.574V26.3961H166.485C167.007 26.3009 167.408 26.0925 167.687 25.7711C167.966 25.4497 168.173 24.9378 168.306 24.2355C168.415 23.6522 168.47 22.3248 168.47 20.2535L168.452 16.6108L181.585 16.6287V26.3961ZM172.55 25.6283C172.477 25.9616 172.411 26.2175 172.35 26.3961H176.977V20.1107H172.896L172.878 21.1463C172.878 22.0511 172.854 22.8486 172.805 23.5391C172.769 24.2176 172.684 24.914 172.55 25.6283Z" fill="#F2F2F2"/>
<path d="M195.282 29.5745C195.051 28.896 194.742 28.0448 194.353 27.0211H188.543L187.632 29.5745H183.06L188.16 16.6108H194.863L200 29.5745H195.282ZM193.315 24.2355C192.854 22.9855 192.38 21.7356 191.894 20.4856L191.457 19.325C191.032 20.4083 190.407 22.0451 189.581 24.2355H193.315Z" fill="#F2F2F2"/>
<path d="M79.628 40.1187C80.3445 40.6901 80.8909 41.3269 81.2674 42.0293C81.656 42.7197 82.0324 43.5709 82.3967 44.5827C82.7003 45.4041 82.9432 45.9815 83.1253 46.3148H77.77C77.6972 46.1124 77.6 45.7613 77.4786 45.2613C77.3571 44.7137 77.2236 44.2554 77.0779 43.8863C76.9443 43.5173 76.75 43.1959 76.495 42.9221C76.0821 42.4935 75.566 42.2198 74.9467 42.1007C74.3395 41.9698 73.5016 41.9043 72.433 41.9043V46.3148H67.8974C67.9945 44.0054 68.0431 41.8448 68.0431 39.833C68.0431 37.8212 67.9945 35.6605 67.8974 33.3511H72.433V38.0116C72.5544 38.0235 72.7366 38.0295 72.9794 38.0295C74.8738 36.1962 76.2825 34.6368 77.2054 33.3511H83.1071L77.4422 38.8866C78.2437 39.1961 78.9723 39.6068 79.628 40.1187Z" fill="#F2F2F2"/>
<path d="M99.3008 33.3511C99.2158 35.3629 99.1733 37.5236 99.1733 39.833C99.1733 42.1424 99.2158 44.303 99.3008 46.3148H95.0202V36.9581H88.8634V46.3148H84.5828C84.68 44.0054 84.7286 41.8448 84.7286 39.833C84.7286 37.8212 84.68 35.6605 84.5828 33.3511H99.3008Z" fill="#F2F2F2"/>
<path d="M111.336 36.9045C109.89 36.8331 108.822 36.7914 108.13 36.7795V42.8864C108.834 42.8745 109.903 42.8328 111.336 42.7614V46.3148H100.752V42.7614C102.149 42.8328 103.211 42.8745 103.94 42.8864V36.7795C103.211 36.7914 102.149 36.8331 100.752 36.9045V33.3511H111.336V36.9045Z" fill="#F2F2F2"/>
<path d="M29.799 0C21.8236 0.208669 14.2462 3.46106 8.68045 9.06464C3.11466 14.6682 0.000126602 22.1803 0 30.0014C0.000868234 37.822 3.11573 45.3334 8.68144 50.9364C14.2471 56.5394 21.8241 59.7913 29.799 60V30V0Z" fill="#F2F2F2"/>
<path d="M34.3526 47.9523C39.2661 47.8236 43.9343 45.8197 47.3631 42.3673C50.7919 38.9149 52.7105 34.2867 52.7102 29.4683C52.7105 24.6498 50.7919 20.0217 47.3631 16.5692C43.9343 13.1168 39.2661 11.1129 34.3526 10.9842V29.4683V47.9523Z" fill="#F2F2F2"/>
</svg>
